<svg width="120" height="55" fill="none" xmlns="http://www.w3.org/2000/svg"><path d="M93.91 2.22c-2.287 1.04-7.328 5.072-13.967 11.213-3.37 3.097-4.82 4.806-4.55 5.313.271.48.935.134 2.755-1.468 8.311-7.396 17.557-13.27 20.901-13.27 1.058 0 2.459 1.122 7.304 5.847a771.943 771.943 0 0 0 7.18 6.915c1.992 1.87 2.68 2.67 2.508 2.91-.172.214-1.451.348-3.934.401-3.271.08-3.738.134-4.033.56-.246.401-.32 1.736-.32 5.741.049 5.393-.344 9.238-1.18 12.362-.787 2.803-2.754 3.978-6.811 3.978-5.337 0-9.812-3.23-12.32-8.89-1.353-3.018-1.721-5.047-1.574-8.277.27-4.913 2.287-8.197 5.041-8.197 1.402 0 2.73 1.281 3.812 3.684.737 1.629.811 1.95.811 4.486 0 1.495.074 2.803.172 2.91.098.107 1.18-.961 2.41-2.35 3.295-3.764 4.795-4.245 5.41-1.788.885 3.524-2.041 9.104-6.886 13.135-.663.561-.786.801-.565 1.042.762.828 4.721-2.937 6.467-6.141 1.918-3.55 2.73-7.77 1.844-9.638-1.106-2.35-4.598-2.083-6.983.507-1.082 1.175-1.131 1.148-1.328-.694-.27-2.403-1.992-5.1-4.008-6.221-1.672-.935-4.353-.935-6.123 0-6.099 3.23-6.099 12.068.024 19.89 3.689 4.726 8.902 7.61 13.746 7.61 3.836 0 6.64-1.255 7.845-3.551 1.647-3.15 2.704-8.677 2.68-14.23v-4.032l2.754-.267c4.549-.454 6-1.549 4.918-3.738-.566-1.121-3.295-3.978-8.238-8.57-4.205-3.925-7.18-6.221-9.295-7.156-1.918-.854-4.549-.854-6.467-.026Z" fill="#C6A679"/><path d="M38.089 9.98c-.648.235-.777 3.701-.173 4.076.95.655 1.769-.328 1.769-2.061 0-1.733-.518-2.39-1.596-2.014ZM3.338 10.918C.75 14.009 1.311 19.49 4.718 24.174c3.02 4.122 3.927 9.415 2.158 12.506-.475.843-1.035 1.546-1.294 1.546-.863 0-1.424-2.202-1.424-5.48 0-2.998-.13-3.42-.776-3.42-1.208 0-1.812 1.733-1.597 4.544.26 3.279 1.424 5.012 3.495 5.199 3.106.281 4.616-1.92 4.616-6.698 0-3.138-.777-5.246-3.02-8.431-2.761-3.888-3.624-7.589-2.545-10.961.56-1.733 1.898-1.967 2.372-.422.173.61.432 2.249.561 3.654.216 2.154.388 2.576 1.122 2.576.776 0 .863-.328.863-2.904 0-3.794-1.036-5.48-3.538-5.668-1.208-.094-1.898.094-2.373.703ZM14.707 11.339c-1.079 1.499-1.899 5.386-1.683 8.384.086 1.967.259 2.342.992 2.342.777 0 .906-.421 1.165-4.122.734-9.227 3.796-8.946 3.796.328v3.935l-1.596.89c-2.157 1.218-3.882 3.981-4.53 7.166-.604 3.326-.172 5.761 1.381 7.635 1.165 1.405 1.38 1.499 3.926 1.358 1.553-.046 2.89-.374 3.106-.702.518-.843.043-22.67-.56-24.825-.691-2.436-1.856-3.607-3.625-3.607-1.078 0-1.725.328-2.373 1.218Zm4.27 18.548c0 5.95-.431 7.963-1.811 8.244-1.985.422-2.934-6.136-1.467-9.977.733-1.873 2.286-3.981 2.933-3.981.173 0 .345 2.576.345 5.715ZM25.276 24.22c-.172 8.806-.172 14.287.086 14.568.26.28.777.374 1.208.28.734-.14.82-.702.95-4.262.086-3.653.215-4.075.948-4.075.432 0 1.122.328 1.467.703.863.936 1.64 4.122 1.467 5.995-.086 1.171.043 1.546.69 1.64 1.122.234 1.553-.75 1.294-2.951-.388-2.904-.992-4.731-1.898-5.621-.82-.796-.82-.843-.043-2.53 1.208-2.576 1.812-6.463 1.898-12.318.087-5.012.043-5.293-.82-5.434-.819-.14-.905.187-1.38 6.792-.518 7.447-.992 9.836-2.416 11.476l-.906 1.077-.215-9.602c-.216-9.321-.26-9.602-1.122-9.743-.906-.14-.906 0-1.208 14.005ZM43.567 24.596c0 14.801.044 15.27 1.64 14.707.388-.187.517-3.232.517-13.255 0-11.71.087-13.116.777-14.006.647-.937.82-.937 1.596-.328.82.656.863 1.358 1.079 14.193.215 12.74.258 13.49 1.035 13.63.431.094.95-.093 1.165-.468.474-.796.474-22.484 0-25.2-.561-2.951-1.64-3.747-5.048-3.747h-2.76v14.474ZM56.769 11.573c-.605.796-1.122 1.593-1.122 1.733 0 .188-.216 1.78-.432 3.513-.517 3.748-.215 5.48.863 5.48 1.036 0 1.294-.89 1.338-4.59.043-8.759 3.235-8.712 3.71.047l.259 4.356-1.381.61c-1.812.842-4.185 3.84-4.745 5.995-1.597 6.23.862 11.804 4.702 10.633.604-.188 1.553-.328 2.157-.375l1.078-.047.13-10.773c.13-11.43-.216-14.802-1.683-16.816-1.294-1.78-3.408-1.686-4.874.234Zm4.4 19.252c-.13 4.496-.302 5.667-.992 6.464-.432.515-1.036.936-1.38.936-1.08 0-1.985-3.232-1.726-6.323.215-3.185 1.121-5.387 2.804-7.12 1.078-1.077 1.164-1.077 1.337-.328.086.469.043 3.326-.043 6.37ZM67.381 23.47l.13 13.35 1.165 1.264c.906.937 1.596 1.265 2.76 1.218 2.934-.093 4.013-2.529 4.056-9.087 0-3.091-.345-3.84-1.596-3.372-.389.14-.561 1.405-.604 4.028 0 4.356-.69 7.026-1.812 7.26-1.51.328-2.028-2.482-2.028-10.68v-7.493h1.942c2.459 0 2.545-.844.129-1.03l-1.855-.142-.13-4.356c-.129-4.262-.129-4.309-1.207-4.309h-1.079l.13 13.35ZM37.83 16.07c-.173.14-.302 5.434-.302 11.71v11.382h2.157V27.733c0-9.977-.086-11.476-.69-11.71-.82-.328-.82-.328-1.165.047ZM4.613 48.624a1.41 1.41 0 0 1-1.083.465c-.437 0-.8-.155-1.09-.465-.286-.31-.429-.7-.429-1.17 0-.474.143-.866.428-1.176.29-.31.654-.465 1.09-.465.438 0 .8.155 1.084.465.29.31.435.702.435 1.177 0 .47-.145.86-.435 1.169ZM4.241 46.6a.94.94 0 0 0-.711-.307.95.95 0 0 0-.718.315c-.193.205-.29.487-.29.847s.099.642.297.847a.954.954 0 0 0 .71.307.954.954 0 0 0 .712-.307c.198-.205.297-.487.297-.847 0-.365-.1-.65-.297-.855Zm1.777-.712h.497v3.11h-.497v-3.11Zm0-.906a.384.384 0 0 1-.104-.27c0-.105.035-.195.104-.27a.326.326 0 0 1 .248-.112c.097 0 .18.037.249.112a.384.384 0 0 1 .103.27.384.384 0 0 1-.103.27.326.326 0 0 1-.249.112.326.326 0 0 1-.248-.112Zm1.642-1.447h.497V49H7.66v-5.464Zm3.838 2.796v-.443h.497v3.11h-.497v-.434c-.248.35-.575.525-.98.525-.386 0-.715-.145-.987-.435-.272-.29-.407-.695-.407-1.214 0-.51.133-.907.4-1.192a1.31 1.31 0 0 1 .994-.434c.414 0 .74.172.98.517Zm-.925-.038a.868.868 0 0 0-.67.307c-.179.2-.268.48-.268.84 0 .345.082.627.248.847.17.215.4.322.69.322a.82.82 0 0 0 .69-.337c.175-.225.263-.5.263-.825 0-.37-.097-.654-.29-.854a.898.898 0 0 0-.663-.3ZM14.962 49v-3.11h.497v.33c.17-.27.407-.406.71-.406.346 0 .606.168.78.503.198-.335.486-.503.863-.503.622 0 .932.405.932 1.215v1.97h-.497V47.11c0-.15-.009-.275-.027-.375a.568.568 0 0 0-.145-.3c-.079-.095-.191-.142-.339-.142-.423 0-.635.325-.635.974V49h-.497v-1.844c0-.575-.172-.862-.517-.862-.419 0-.628.337-.628 1.012v1.694h-.497Zm7.127-2.668v-.443h.497v3.11h-.497v-.434c-.248.35-.575.525-.98.525-.387 0-.716-.145-.987-.435-.272-.29-.407-.695-.407-1.214 0-.51.133-.907.4-1.192a1.31 1.31 0 0 1 .994-.434c.414 0 .74.172.98.517Zm-.925-.038a.868.868 0 0 0-.67.307c-.179.2-.269.48-.269.84 0 .345.083.627.249.847.17.215.4.322.69.322a.82.82 0 0 0 .69-.337c.175-.225.263-.5.263-.825 0-.37-.097-.654-.29-.854a.898.898 0 0 0-.663-.3Zm2.57-2.758h.497v3.508l1.05-1.155h.648l-1.228 1.334L26.15 49h-.65l-1.146-1.417-.124.135V49h-.497v-5.464Zm4.127 2.848h-.497v2.616h-.497v-2.616h-.304v-.495h.304v-1.124h.497v1.124h.497v.495Zm2.87-.052v-.443h.498v3.11h-.497v-.434c-.249.35-.576.525-.98.525-.387 0-.716-.145-.988-.435-.271-.29-.407-.695-.407-1.214 0-.51.134-.907.4-1.192a1.31 1.31 0 0 1 .994-.434c.415 0 .741.172.98.517Zm-.924-.038a.868.868 0 0 0-.67.307c-.18.2-.27.48-.27.84 0 .345.084.627.25.847.17.215.4.322.69.322a.82.82 0 0 0 .69-.337c.175-.225.262-.5.262-.825 0-.37-.096-.654-.29-.854a.898.898 0 0 0-.662-.3Zm3.067 2.27V49h-.497v-5.464h.497v2.788c.253-.34.58-.51.98-.51.428 0 .766.165 1.015.495.253.325.38.71.38 1.154 0 .45-.125.834-.373 1.154-.249.315-.582.473-1.001.473-.419 0-.753-.175-1.001-.525Zm.932.046c.28 0 .506-.11.676-.33.17-.225.256-.497.256-.817 0-.36-.095-.644-.283-.854-.19-.21-.408-.315-.656-.315-.249 0-.47.105-.663.315-.193.21-.29.492-.29.847 0 .324.088.6.263.824.18.22.411.33.697.33Zm2.411-2.72h.497v3.11h-.497v-3.11Zm0-.907a.385.385 0 0 1-.103-.27c0-.105.034-.195.103-.27a.326.326 0 0 1 .249-.112c.096 0 .18.037.248.112a.384.384 0 0 1 .104.27.385.385 0 0 1-.104.27.326.326 0 0 1-.248.112.326.326 0 0 1-.249-.112Z" fill="#000"/></svg>